<svg xmlns="http://www.w3.org/2000/svg" width="120" height="112" viewBox="0 0 120 112">
  <filter id="wax" x="-20%" y="-20%" width="140%" height="140%">
    <feTurbulence type="fractalNoise" baseFrequency=".9" numOctaves="3" seed="31"/>
    <feDisplacementMap in="SourceGraphic" scale="2.4"/>
  </filter>
  <path filter="url(#wax)" d="M61 5c24 0 44 12 50 34 8 28-7 55-32 64-22 8-50 1-63-20C1 58 11 25 36 12 43 8 52 5 61 5z" fill="#7a4d1d"/>
  <path d="M61 18c19 0 34 10 38 27 5 20-7 39-26 45-17 5-38 0-48-15-12-18-4-42 15-51 6-4 14-6 21-6z" fill="none" stroke="#2a1608" stroke-opacity=".42"/>
  <path d="M38 30c10-7 27-10 42-2" fill="none" stroke="#ffe2a0" stroke-opacity=".14"/>
</svg>
